# xmcd
#
# Track frame offsets:
#	150
#	16890
#	30099
#	49356
#	61962
#	76519
#	90976
#	102389
#	113530
#	129913
#	142831
#	155063
#	169587
#	182505
#	192981
#	215683
#	226637
#	239470
#	252393
#	264225
#	277313
#	289798
#	302516
#	316111
#	327583
#
# Disc length: 4547 seconds
#
# Revision: 0
# Processed by: cddbd v1.5.2PL0 Copyright (c) Steve Scherf et al.
# Submitted via: EasyCDDAExtractor 8.0.1.1
#
DISCID=4811c119
DTITLE=Raul Garcia Zarate - Grandes Exitos
DYEAR=2000
DGENRE=Andino
TTITLE0=El pajarillo
TTITLE1=Valicha
TTITLE2=El condor pasa
TTITLE3=Carnaval de Ayacucho
TTITLE4=Mi uancavelica
TTITLE5=Mi Huancavelica
TTITLE6=Carnaval arequipeño
TTITLE7=Silvia
TTITLE8=Virgenes del sol
TTITLE9=Elsa
TTITLE10=Punchauniriki
TTITLE11=Ciudad del lago
TTITLE12=Adios pueblo de Ayacucho
TTITLE13=El paria
TTITLE14=Putika mayo
TTITLE15=Soñaba
TTITLE16=Vicunitasha
TTITLE17=Ayacuimanta
TTITLE18=Puro sentimiento
TTITLE19=Malabrigo
TTITLE20=a pagande
TTITLE21=La pagande
TTITLE22=Ojos negros
TTITLE23=Huerfano pajarillo
TTITLE24=Sed de amor
EXTD=
EXTT0=
EXTT1=
EXTT2=
EXTT3=
EXTT4=
EXTT5=
EXTT6=
EXTT7=
EXTT8=
EXTT9=
EXTT10=
EXTT11=
EXTT12=
EXTT13=
EXTT14=
EXTT15=
EXTT16=
EXTT17=
EXTT18=
EXTT19=
EXTT20=
EXTT21=
EXTT22=
EXTT23=
EXTT24=
PLAYORDER=
